<?xml version="1.0" encoding="UTF-8"?>
<svg version="1.1" xmlns="http://www.w3.org/2000/svg" width="96" height="96">
<path d="M0 0 C31.68 0 63.36 0 96 0 C96 20.46 96 40.92 96 62 C64.32 62 32.64 62 0 62 C0 41.54 0 21.08 0 0 Z " fill="#FCFCFC" transform="translate(0,17)"/>
<path d="M0 0 C5.61 0 11.22 0 17 0 C17 6.93 17 13.86 17 21 C11.39 21 5.78 21 0 21 C0 14.07 0 7.14 0 0 Z " fill="#906386" transform="translate(62,29)"/>
<path d="M0 0 C0.99 0 1.98 0 3 0 C3 2.31 3 4.62 3 7 C3.99 6.34 4.98 5.68 6 5 C8.33199388 4.92094936 10.66832622 4.91201231 13 5 C13 6.98 13 8.96 13 11 C13.66 11 14.32 11 15 11 C15 9.02 15 7.04 15 5 C16.32 5 17.64 5 19 5 C19 3.68 19 2.36 19 1 C19.66 1 20.32 1 21 1 C21 4.96 21 8.92 21 13 C15.94634708 13.09897181 10.89325976 13.17151603 5.83886719 13.21972656 C4.12001721 13.23982628 2.40123548 13.26711089 0.68261719 13.30175781 C-1.78988489 13.35035034 -4.2614821 13.37298435 -6.734375 13.390625 C-7.88459137 13.42159271 -7.88459137 13.42159271 -9.05804443 13.45318604 C-12.61355053 13.45467706 -14.60091546 13.29935261 -17.48535156 11.13574219 C-19 9 -19 9 -19.5 6.4375 C-19 4 -19 4 -17.375 2.1875 C-14.42797793 0.71398897 -12.25295114 0.77820788 -9 1 C-9 1.99 -9 2.98 -9 4 C-10.98 4.33 -12.96 4.66 -15 5 C-15 6.32 -15 7.64 -15 9 C-12.03 9.495 -12.03 9.495 -9 10 C-8.7834375 9.0409375 -8.7834375 9.0409375 -8.5625 8.0625 C-8 6 -8 6 -7 5 C-4.66702567 4.95907063 -2.33294775 4.95758277 0 5 C0 3.35 0 1.7 0 0 Z " fill="#606060" transform="translate(34,50)"/>
<path d="M0 0 C4.66666667 0 9.33333333 0 14 0 C14 1.98 14 3.96 14 6 C14.66 5.67 15.32 5.34 16 5 C16.65213292 2.97536745 16.65213292 2.97536745 17 1 C17.66 1 18.32 1 19 1 C19.04254356 2.99954746 19.04080783 5.00041636 19 7 C18 8 18 8 15.6875 8.0625 C14.800625 8.041875 13.91375 8.02125 13 8 C11.68 8 10.36 8 9 8 C7.35 8 5.7 8 4 8 C3.67 12.29 3.34 16.58 3 21 C0.36 21 -2.28 21 -5 21 C-5 18.69 -5 16.38 -5 14 C-4.34 14 -3.68 14 -3 14 C-3 13.34 -3 12.68 -3 12 C-3.66 12 -4.32 12 -5 12 C-4.79375 10.9275 -4.5875 9.855 -4.375 8.75 C-4.0123809 5.12380904 -4.01637931 3.91708924 -6 1 C-3.525 1.495 -3.525 1.495 -1 2 C-0.67 1.34 -0.34 0.68 0 0 Z " fill="#C8C8C8" transform="translate(21,28)"/>
<path d="M0 0 C0.66 0 1.32 0 2 0 C2 0.66 2 1.32 2 2 C7.61 2 13.22 2 19 2 C19 2.66 19 3.32 19 4 C18.01 4.33 17.02 4.66 16 5 C15.67 6.65 15.34 8.3 15 10 C14.360625 9.814375 13.72125 9.62875 13.0625 9.4375 C12.0415625 9.2209375 12.0415625 9.2209375 11 9 C10.67 9.33 10.34 9.66 10 10 C8.58429877 10.08651611 7.164405 10.10704904 5.74609375 10.09765625 C4.89208984 10.09443359 4.03808594 10.09121094 3.15820312 10.08789062 C2.26037109 10.07951172 1.36253906 10.07113281 0.4375 10.0625 C-0.46419922 10.05798828 -1.36589844 10.05347656 -2.29492188 10.04882812 C-4.53001314 10.03700225 -6.76497437 10.0205222 -9 10 C-10.125 4.25 -10.125 4.25 -9 2 C-6.03 2 -3.06 2 0 2 C0 1.34 0 0.68 0 0 Z " fill="#5D5D5D" transform="translate(66,53)"/>
<path d="M0 0 C0.99 0 1.98 0 3 0 C3 3.96 3 7.92 3 12 C0.03 12 -2.94 12 -6 12 C-6 13.32 -6 14.64 -6 16 C-6.99 16 -7.98 16 -9 16 C-9 14.68 -9 13.36 -9 12 C-9.99 12 -10.98 12 -12 12 C-12 10.35 -12 8.7 -12 7 C-12.66 7 -13.32 7 -14 7 C-14 8.65 -14 10.3 -14 12 C-14.99 12 -15.98 12 -17 12 C-17 10.35 -17 8.7 -17 7 C-17.66 7 -18.32 7 -19 7 C-19 8.65 -19 10.3 -19 12 C-19.99 12 -20.98 12 -22 12 C-22 9.69 -22 7.38 -22 5 C-15.07 5 -8.14 5 -1 5 C-0.67 3.35 -0.34 1.7 0 0 Z " fill="#484848" transform="translate(47,37)"/>
<path d="M0 0 C0.33 0 0.66 0 1 0 C1 1.65 1 3.3 1 5 C2.98 5 4.96 5 7 5 C8.125 9.75 8.125 9.75 7 12 C6.92907158 14.2072923 6.91584975 16.41667452 6.9375 18.625 C6.94652344 19.81351563 6.95554687 21.00203125 6.96484375 22.2265625 C6.97644531 23.14179687 6.98804687 24.05703125 7 25 C6.34 25 5.68 25 5 25 C5 21.37 5 17.74 5 14 C4.34 14 3.68 14 3 14 C3 15.32 3 16.64 3 18 C1.68 18 0.36 18 -1 18 C-1 19.98 -1 21.96 -1 24 C-1.66 24 -2.32 24 -3 24 C-3 22.02 -3 20.04 -3 18 C-5.97 18.33 -8.94 18.66 -12 19 C-12 18.01 -12 17.02 -12 16 C-11.01 16 -10.02 16 -9 16 C-9 14.68 -9 13.36 -9 12 C-3.375 10.875 -3.375 10.875 0 12 C0 8.04 0 4.08 0 0 Z " fill="#E0E0E0" transform="translate(50,37)"/>
<path d="M0 0 C0.33 0 0.66 0 1 0 C1 2.31 1 4.62 1 7 C1.99 7 2.98 7 4 7 C4 5.35 4 3.7 4 2 C4.66 2 5.32 2 6 2 C6 3.65 6 5.3 6 7 C6.99 7 7.98 7 9 7 C9 5.35 9 3.7 9 2 C9.66 2 10.32 2 11 2 C11 3.65 11 5.3 11 7 C11.99 7 12.98 7 14 7 C14.33 9.64 14.66 12.28 15 15 C14.34 15 13.68 15 13 15 C13 12.69 13 10.38 13 8 C12.01 8 11.02 8 10 8 C10 9.65 10 11.3 10 13 C8.329375 13.12375 8.329375 13.12375 6.625 13.25 C2.94246056 13.57873787 2.94246056 13.57873787 1.5625 16.0625 C1.376875 16.701875 1.19125 17.34125 1 18 C-0.98 18 -2.96 18 -5 18 C-5.38218767 16.34385343 -5.71395102 14.67542976 -6 13 C-5 12 -5 12 -1.9375 11.9375 C-0.4834375 11.9684375 -0.4834375 11.9684375 1 12 C1 11.01 1 10.02 1 9 C-1.97 8.67 -4.94 8.34 -8 8 C-8 7.67 -8 7.34 -8 7 C-2.25 5.875 -2.25 5.875 0 7 C0 4.69 0 2.38 0 0 Z " fill="#EFEFEF" transform="translate(24,42)"/>
<path d="M0 0 C4.62 0 9.24 0 14 0 C14 3.63 14 7.26 14 11 C9.38 11 4.76 11 0 11 C0 7.37 0 3.74 0 0 Z " fill="#BDA552" transform="translate(63,38)"/>
<path d="M0 0 C0.66 0 1.32 0 2 0 C2 3.96 2 7.92 2 12 C-3.28 12 -8.56 12 -14 12 C-13.34 11.34 -12.68 10.68 -12 10 C-12 8.68 -12 7.36 -12 6 C-10.68 5.67 -9.36 5.34 -8 5 C-9.65 5 -11.3 5 -13 5 C-13 4.67 -13 4.34 -13 4 C-10.69 4 -8.38 4 -6 4 C-6 5.98 -6 7.96 -6 10 C-5.34 10 -4.68 10 -4 10 C-4 8.02 -4 6.04 -4 4 C-2.68 4 -1.36 4 0 4 C0 2.68 0 1.36 0 0 Z " fill="#656565" transform="translate(53,51)"/>
<path d="M0 0 C0.66 0 1.32 0 2 0 C2.91058531 3.07322544 3.08886184 5.80097361 3 9 C-0.9813783 10.3271261 -4.85045227 10.06915913 -9 10 C-10.125 4.25 -10.125 4.25 -9 2 C-6.03 2 -3.06 2 0 2 C0 1.34 0 0.68 0 0 Z " fill="#4E4E4E" transform="translate(66,53)"/>
<path d="M0 0 C0.99 0.495 0.99 0.495 2 1 C1.67 2.32 1.34 3.64 1 5 C3.97 5 6.94 5 10 5 C9.01 5.33 8.02 5.66 7 6 C7.33 6.66 7.66 7.32 8 8 C8.06996014 9.70702735 8.08440154 11.41668003 8.0625 13.125 C8.05347656 14.03507812 8.04445313 14.94515625 8.03515625 15.8828125 C8.02355469 16.58148438 8.01195313 17.28015625 8 18 C7.67 18 7.34 18 7 18 C7 15.03 7 12.06 7 9 C5.02 9 3.04 9 1 9 C1 12.63 1 16.26 1 20 C3.97 20 6.94 20 10 20 C10 17.69 10 15.38 10 13 C10.33 13 10.66 13 11 13 C11 15.31 11 17.62 11 20 C12.65 20 14.3 20 16 20 C16 15.38 16 10.76 16 6 C16.33 6 16.66 6 17 6 C17 10.95 17 15.9 17 21 C11.39 21 5.78 21 0 21 C0 14.07 0 7.14 0 0 Z " fill="#7867A6" transform="translate(62,29)"/>
<path d="M0 0 C0 0.99 0 1.98 0 3 C-1.98 3.33 -3.96 3.66 -6 4 C-6 5.32 -6 6.64 -6 8 C-3.03 8.495 -3.03 8.495 0 9 C0 8.01 0 7.02 0 6 C0.66 6 1.32 6 2 6 C2 6.99 2 7.98 2 9 C3.32 9 4.64 9 6 9 C6 8.01 6 7.02 6 6 C5.01 5.67 4.02 5.34 3 5 C4.65 5 6.3 5 8 5 C8 6.98 8 8.96 8 11 C5.75308523 11.2763585 3.50215158 11.52018861 1.25 11.75 C-0.00296875 11.88921875 -1.2559375 12.0284375 -2.546875 12.171875 C-6 12 -6 12 -8.421875 10.17578125 C-10 8 -10 8 -10.5 5.4375 C-10 3 -10 3 -8.375 1.1875 C-5.42797793 -0.28601103 -3.25295114 -0.22179212 0 0 Z " fill="#222222" transform="translate(25,51)"/>
<path d="M0 0 C0 1.98 0 3.96 0 6 C0.66 5.67 1.32 5.34 2 5 C2.65213292 2.97536745 2.65213292 2.97536745 3 1 C3.66 1 4.32 1 5 1 C5.04254356 2.99954746 5.04080783 5.00041636 5 7 C4 8 4 8 1.6875 8.0625 C0.800625 8.041875 -0.08625 8.02125 -1 8 C-3.22926402 8 -5.45883857 8.01067066 -7.6875 8.0625 C-10 8 -10 8 -11 7 C-11.04063832 5.33382885 -11.042721 3.66611905 -11 2 C-10.34 2 -9.68 2 -9 2 C-9 2.99 -9 3.98 -9 5 C-8.01 5 -7.02 5 -6 5 C-6 4.01 -6 3.02 -6 2 C-6.66 1.67 -7.32 1.34 -8 1 C-5.23735711 0.40267181 -2.83967231 0 0 0 Z " fill="#2F2F2F" transform="translate(35,28)"/>
<path d="M0 0 C1.97909398 -0.02686553 3.95828971 -0.04633375 5.9375 -0.0625 C7.03964844 -0.07410156 8.14179687 -0.08570313 9.27734375 -0.09765625 C12 0 12 0 13 1 C13.04080783 2.99958364 13.04254356 5.00045254 13 7 C12.01 7 11.02 7 10 7 C10 5.35 10 3.7 10 2 C9.34 2 8.68 2 8 2 C8 3.65 8 5.3 8 7 C7.01 7 6.02 7 5 7 C5 5.35 5 3.7 5 2 C4.34 2 3.68 2 3 2 C3 3.65 3 5.3 3 7 C2.01 7 1.02 7 0 7 C0 4.69 0 2.38 0 0 Z " fill="#2D2D2D" transform="translate(25,42)"/>
<path d="M0 0 C4.95 0 9.9 0 15 0 C15 1.32 15 2.64 15 4 C10.05 4 5.1 4 0 4 C0 2.68 0 1.36 0 0 Z " fill="#E3A347" transform="translate(63,30)"/>
<path d="M0 0 C1.65 0 3.3 0 5 0 C5 0.99 5 1.98 5 3 C5.33 2.01 5.66 1.02 6 0 C6.66 0 7.32 0 8 0 C8 2.31 8 4.62 8 7 C5.36 7 2.72 7 0 7 C0 4.69 0 2.38 0 0 Z " fill="#242424" transform="translate(16,42)"/>
<path d="M0 0 C0.66 0 1.32 0 2 0 C2 3.96 2 7.92 2 12 C-2 11 -2 11 -4 9 C-4.125 6.375 -4.125 6.375 -4 4 C-2.68 4 -1.36 4 0 4 C0 2.68 0 1.36 0 0 Z " fill="#414141" transform="translate(53,51)"/>
<path d="M0 0 C1.32 0 2.64 0 4 0 C4 3.63 4 7.26 4 11 C2.68 11 1.36 11 0 11 C0 7.37 0 3.74 0 0 Z " fill="#CA4B3D" transform="translate(73,38)"/>
<path d="M0 0 C1.98 0 3.96 0 6 0 C6 0.99 6 1.98 6 3 C5.34 3 4.68 3 4 3 C4 4.98 4 6.96 4 9 C2.68 9.33 1.36 9.66 0 10 C0 6.7 0 3.4 0 0 Z " fill="#A8906A" transform="translate(63,38)"/>
<path d="M0 0 C1.2065625 0.0309375 1.2065625 0.0309375 2.4375 0.0625 C3.5625 4.8125 3.5625 4.8125 2.4375 7.0625 C0.77138095 7.105221 -0.89632885 7.10313832 -2.5625 7.0625 C-3.5625 6.0625 -3.5625 6.0625 -3.6875 3.5625 C-3.51717518 0.15600356 -3.41884482 0.08338646 0 0 Z " fill="#333333" transform="translate(54.5625,41.9375)"/>
<path d="M0 0 C1.1446875 0.2784375 1.1446875 0.2784375 2.3125 0.5625 C5.08967375 1.22819173 5.08967375 1.22819173 8 0 C6.8905928 3.48670834 5.73662334 6.77484237 4 10 C3.01 10 2.02 10 1 10 C1.20625 9.0925 1.4125 8.185 1.625 7.25 C2.0127245 3.88972103 1.80411967 2.75924185 0 0 Z " fill="#171717" transform="translate(15,29)"/>
<path d="M0 0 C1.98 0 3.96 0 6 0 C6 0.99 6 1.98 6 3 C5.01 3 4.02 3 3 3 C3 4.65 3 6.3 3 8 C2.01 8 1.02 8 0 8 C0 5.36 0 2.72 0 0 Z " fill="#464646" transform="translate(41,28)"/>
<path d="M0 0 C0.66 0 1.32 0 2 0 C2.91058531 3.07322544 3.08886184 5.80097361 3 9 C2.01 9 1.02 9 0 9 C0 7.35 0 5.7 0 4 C-2.97 3.67 -5.94 3.34 -9 3 C-9 2.67 -9 2.34 -9 2 C-6.03 2 -3.06 2 0 2 C0 1.34 0 0.68 0 0 Z " fill="#2C2C2C" transform="translate(66,53)"/>
<path d="M0 0 C0 0.99 0 1.98 0 3 C-1.27875 3.0825 -2.5575 3.165 -3.875 3.25 C-6.05333418 3.45869931 -6.05333418 3.45869931 -8 4 C-9.5899433 5.92064793 -9.5899433 5.92064793 -10 8 C-10.25 5.6875 -10.25 5.6875 -10 3 C-7.00198322 -0.3439418 -4.3216814 -0.2946601 0 0 Z " fill="#333333" transform="translate(25,51)"/>
<path d="M0 0 C0.66 1.32 1.32 2.64 2 4 C2.66 4 3.32 4 4 4 C4.33 2.68 4.66 1.36 5 0 C5.66 0 6.32 0 7 0 C7.04254356 1.99954746 7.04080783 4.00041636 7 6 C6 7 6 7 3.5 7.125 C1 7 1 7 0 6 C-0.04080783 4.00041636 -0.04254356 1.99954746 0 0 Z " fill="#121212" transform="translate(33,29)"/>
<path d="M0 0 C1.65 0 3.3 0 5 0 C5 1.98 5 3.96 5 6 C2.69 6 0.38 6 -2 6 C-2 4.35 -2 2.7 -2 1 C-1.67 1.99 -1.34 2.98 -1 4 C0.32 4 1.64 4 3 4 C3 3.01 3 2.02 3 1 C2.01 0.67 1.02 0.34 0 0 Z " fill="#0F0F0F" transform="translate(28,56)"/>
<path d="M0 0 C1.98 0 3.96 0 6 0 C6 1.65 6 3.3 6 5 C5.67 3.68 5.34 2.36 5 1 C4.01 1.33 3.02 1.66 2 2 C2 2.66 2 3.32 2 4 C2.66 4.66 3.32 5.32 4 6 C2.35 5.67 0.7 5.34 -1 5 C-0.67 3.35 -0.34 1.7 0 0 Z " fill="#161616" transform="translate(39,56)"/>
<path d="M0 0 C2.64 0 5.28 0 8 0 C8 1.65 8 3.3 8 5 C7.01 5 6.02 5 5 5 C5 4.01 5 3.02 5 2 C4.34 2 3.68 2 3 2 C2.67 3.32 2.34 4.64 2 6 C1.67 5.01 1.34 4.02 1 3 C1.33 2.34 1.66 1.68 2 1 C1.34 0.67 0.68 0.34 0 0 Z " fill="#8F8F8F" transform="translate(21,28)"/>
<path d="M0 0 C0.33 0 0.66 0 1 0 C1 2.31 1 4.62 1 7 C1.99 7.33 2.98 7.66 4 8 C-4.57142857 9.42857143 -4.57142857 9.42857143 -8 7 C-2.25 5.875 -2.25 5.875 0 7 C0 4.69 0 2.38 0 0 Z " fill="#B3B3B3" transform="translate(24,42)"/>
<path d="M0 0 C0.99 0 1.98 0 3 0 C2.67 2.97 2.34 5.94 2 9 C1.34 9 0.68 9 0 9 C0 6.03 0 3.06 0 0 Z " fill="#B29B5D" transform="translate(70,38)"/>
<path d="M0 0 C0.99 0.33 1.98 0.66 3 1 C2.67 3.97 2.34 6.94 2 10 C1.34 10 0.68 10 0 10 C0 6.7 0 3.4 0 0 Z " fill="#101010" transform="translate(39,43)"/>
<path d="M0 0 C1.32 0.66 2.64 1.32 4 2 C4.66 1.34 5.32 0.68 6 0 C5.67 1.65 5.34 3.3 5 5 C3.35 5 1.7 5 0 5 C-0.33 4.01 -0.66 3.02 -1 2 C-0.67 1.34 -0.34 0.68 0 0 Z " fill="#202020" transform="translate(71,58)"/>
<path d="M0 0 C0.33 0.99 0.66 1.98 1 3 C2.65 3 4.3 3 6 3 C5.67 3.66 5.34 4.32 5 5 C3.35 5 1.7 5 0 5 C-0.5625 3.0625 -0.5625 3.0625 -1 1 C-0.67 0.67 -0.34 0.34 0 0 Z " fill="#171717" transform="translate(52,44)"/>
</svg>
